<svg width="24" height="21" fill="none" xmlns="http://www.w3.org/2000/svg"><path d="M22.072 2.954a6.701 6.701 0 00-9.466 0L12 3.56l-.606-.606a6.7 6.7 0 00-9.466 0c-2.556 2.557-2.573 6.61-.038 9.427 2.312 2.569 9.13 8.119 9.419 8.354.196.16.433.237.668.237h.022c.243.01.488-.073.69-.238.29-.234 7.109-5.784 9.421-8.354 2.535-2.817 2.518-6.87-.038-9.426zm-1.537 8.009c-1.802 2.002-6.757 6.132-8.536 7.598-1.778-1.466-6.732-5.595-8.534-7.598-1.768-1.965-1.784-4.764-.038-6.51A4.561 4.561 0 016.66 3.116a4.56 4.56 0 013.234 1.337l1.333 1.332c.158.159.358.254.568.287.34.073.71-.022.975-.286l1.333-1.333a4.58 4.58 0 016.469 0c1.746 1.746 1.73 4.545-.038 6.51z" fill="#fff"/></svg>