<svg width="50" height="51" viewBox="0 0 50 51" fill="none" xmlns="http://www.w3.org/2000/svg">
<g clip-path="url(#clip0_1157_41481)">
<circle cx="25" cy="25.6987" r="25" fill="white"/>
<path d="M20.7113 33.3255H23.4049L30.2688 19.031H27.5552L20.7113 33.3255ZM34 30.0331C34 25.166 26.8369 25.166 26.8369 30.0331C26.8369 34.9206 34 34.9206 34 30.0331ZM29.0516 30.0331C29.0516 27.8449 31.7653 27.8449 31.7653 30.0331C31.7653 32.2621 29.0516 32.2621 29.0516 30.0331ZM24.1631 22.3644C24.1631 17.4768 17 17.4768 17 22.3644C17 27.2519 24.1631 27.2519 24.1631 22.3644ZM19.2347 22.3644C19.2347 20.1353 21.9484 20.1353 21.9484 22.3644C21.9484 24.5525 19.2347 24.5525 19.2347 22.3644Z" fill="#F53B49"/>
</g>
<defs>
<clipPath id="clip0_1157_41481">
<rect width="50" height="50" fill="white" transform="translate(0 0.69873)"/>
</clipPath>
</defs>
</svg>
