<svg width="50" height="51" fill="none" xmlns="http://www.w3.org/2000/svg"><g clip-path="url(#clip0_1157_41471)"><circle cx="25" cy="25.699" r="25" fill="#fff"/><path d="M31.344 10.699h-11.3c-.946 0-1.715.769-1.715 1.714v13.108c-.1.137-.268.358-.432.575-.607.802-1.524 2.013-2.071 2.874-1.079 1.701-1.1 3.4-.07 5.683a2649.814 2649.814 0 001.368 2.481c.326.601.871 1.608.837 2.4v1.904c0 .97.79 1.76 1.76 1.76h5.736c.971 0 1.761-.79 1.761-1.76l-.005-1.645c0-.633.096-.966.217-1.388a7.812 7.812 0 00.248-1.092c.094-.974-.16-1.915-.428-2.912a20.31 20.31 0 01-.43-1.836h4.524c.946 0 1.715-.77 1.715-1.714v-6.368a.635.635 0 00-1.27 0v6.367c0 .246-.2.445-.445.445h-1.497V11.968h1.497c.245 0 .445.2.445.445v13.868a.635.635 0 001.27 0V12.413c0-.945-.77-1.714-1.715-1.714zm-5.887 31.23h-5.736a.498.498 0 01-.491-.491v-1.864c.043-1.138-.602-2.33-.989-3.045l-1.338-2.422c-.844-1.881-.845-3.132-.005-4.456.367-.58.925-1.343 1.43-2.019v3.218c0 .946.77 1.715 1.715 1.715h2.035v2.118a.635.635 0 101.27 0v-6.684a1.04 1.04 0 012.079-.004c-.001.217-.005 1.649-.03 2.313a11.407 11.407 0 00.13 2.205c.127.84.324 1.573.497 2.218.246.913.459 1.703.392 2.444-.055.352-.129.609-.206.88-.131.456-.267.928-.267 1.742v.006l.006 1.635a.498.498 0 01-.492.491zm3.12-10.634h-1.904c-.016-.3.022-3.077.023-3.293a2.275 2.275 0 00-.669-1.627 2.299 2.299 0 00-1.64-.684 2.31 2.31 0 00-2.309 2.308v3.296h-2.035a.445.445 0 01-.445-.445V12.413c0-.245.2-.445.445-.445h8.534v19.327z" fill="#F53B49"/></g><defs><clipPath id="clip0_1157_41471"><path fill="#fff" transform="translate(0 .699)" d="M0 0h50v50H0z"/></clipPath></defs></svg>