<svg width="50" height="51" fill="none" xmlns="http://www.w3.org/2000/svg"><g clip-path="url(#clip0_1157_41475)"><circle cx="25" cy="25.699" r="25" fill="#fff"/><path d="M33.98 12.574c-2.879 0-5.336 1.878-6.256 4.394H16.109c-.257 0-.466.232-.468.489l-.11 16.416H12.22c-.259 0-.48.187-.48.446v2.083a3.676 3.676 0 003.51 3.661v.01h14.448v-.013c.117.004.165.014.239.014h.01a3.676 3.676 0 003.67-3.676V25.865c.117.006.24.01.362.01 3.663 0 6.645-2.987 6.645-6.65 0-3.665-2.98-6.651-6.644-6.651zM15.427 39.138h-.003a2.753 2.753 0 01-2.749-2.74v-1.589h13.571v1.582a3.67 3.67 0 001.084 2.601c.05.05.11.087.162.146H15.426zm17.254-2.74a2.74 2.74 0 01-2.734 2.74h-.01a2.76 2.76 0 01-2.755-2.747V34.32a.433.433 0 00-.446-.446h-10.27l.108-15.97h10.89a6.599 6.599 0 00.437 3.978h-4.42a.468.468 0 100 .936h4.927a6.604 6.604 0 004.273 2.931v10.65zm1.3-11.459a5.708 5.708 0 11-.001-11.415 5.708 5.708 0 010 11.415z" fill="#F53B49" stroke="#F53B49" stroke-width=".188"/><path d="M20.476 24.996c-.826 0-1.498.65-1.498 1.45 0 .8.672 1.45 1.498 1.45s1.498-.65 1.498-1.45c0-.8-.672-1.45-1.498-1.45zm0 1.964c-.31 0-.562-.23-.562-.514 0-.284.252-.514.562-.514.31 0 .562.23.562.514 0 .284-.252.514-.562.514zm2.538-.516c0 .259.209.468.468.468h6.239a.468.468 0 000-.936h-6.24a.468.468 0 00-.467.468zm-2.538-5.516c-.826 0-1.498.65-1.498 1.45 0 .8.672 1.45 1.498 1.45s1.498-.65 1.498-1.45c0-.8-.672-1.45-1.498-1.45zm0 1.965c-.31 0-.562-.231-.562-.515 0-.283.252-.514.562-.514.31 0 .562.23.562.514 0 .284-.252.515-.562.515v0zm0 6.171c-.826 0-1.498.65-1.498 1.45 0 .8.672 1.45 1.498 1.45s1.498-.65 1.498-1.45c0-.8-.672-1.45-1.498-1.45zm0 1.964c-.31 0-.562-.23-.562-.514 0-.284.252-.515.562-.515.31 0 .562.231.562.515 0 .283-.252.514-.562.514zm9.244-.958h-6.238a.468.468 0 100 .937h6.239a.468.468 0 000-.936z" fill="#F53B49" stroke="#F53B49" stroke-width=".188"/><path d="M32.54 16.324c-.088 0-.136.053-.136.153l-.02 3.889h-.373c-.089 0-.136.053-.136.153v.492c0 .1.047.154.136.154h.373l-.007.63c0 .1.047.154.136.154h.59c.088 0 .135-.054.135-.154l-.006-.63h1.058c.088 0 .135-.054.135-.154v-.492c0-.1-.047-.153-.135-.153h-1.058l-.007-.438h1.282c1.044 0 1.743-.807 1.743-1.852 0-1.038-.699-1.752-1.743-1.752H32.54zm.685 2.804l-.014-2.005h1.235c.59 0 1.004.4 1.004 1.045 0 .6-.346.96-1.004.96h-1.221z" fill="#F53B49"/></g><defs><clipPath id="clip0_1157_41475"><path fill="#fff" transform="translate(0 .699)" d="M0 0h50v50H0z"/></clipPath></defs></svg>