<svg width="50" height="51" fill="none" xmlns="http://www.w3.org/2000/svg"><g clip-path="url(#clip0_1157_41481)"><circle cx="25" cy="25.699" r="25" fill="#fff"/><path d="M20.711 33.325h2.694l6.864-14.294h-2.714l-6.844 14.294zM34 30.033c0-4.867-7.163-4.867-7.163 0 0 4.888 7.163 4.888 7.163 0zm-4.948 0c0-2.188 2.713-2.188 2.713 0 0 2.23-2.713 2.23-2.713 0zm-4.889-7.669c0-4.887-7.163-4.887-7.163 0 0 4.888 7.163 4.888 7.163 0zm-4.928 0c0-2.229 2.713-2.229 2.713 0 0 2.188-2.713 2.188-2.713 0z" fill="#F53B49"/></g><defs><clipPath id="clip0_1157_41481"><path fill="#fff" transform="translate(0 .699)" d="M0 0h50v50H0z"/></clipPath></defs></svg>