<svg width="50" height="51" fill="none" xmlns="http://www.w3.org/2000/svg"><g clip-path="url(#clip0_1157_41478)"><circle cx="25" cy="25.699" r="25" fill="#fff"/><path d="M35.988 19.45a.69.69 0 00-.08-.264c-.01-.017-.011-.04-.023-.057l-2.75-4.125a.691.691 0 00-.572-.305H17.437a.689.689 0 00-.572.306l-2.75 4.125c-.012.018-.013.039-.023.058a.69.69 0 00-.08.264c-.002.02-.012.037-.012.06v15.812c0 .759.617 1.375 1.375 1.375h19.25c.758 0 1.375-.616 1.375-1.375V19.51c0-.022-.01-.04-.012-.06zm-3.794-3.376l1.834 2.75h-6.383l-.459-2.75h5.008zm-7.987 0h1.585l.46 2.75h-2.503l.458-2.75zm-.582 4.125h2.75v2.484l-1.158-.387a.71.71 0 00-.434 0l-1.158.387V20.2zm-5.819-4.125h5.008l-.46 2.75h-6.382l1.834-2.75zM34.625 36.01v-.687h-19.25V20.199h6.875v3.437c0 .222.106.43.286.557.179.13.408.161.619.096L25 23.673l1.845.615a.677.677 0 00.619-.095.682.682 0 00.286-.557V20.2h6.875v15.125h.001l-.001.687z" fill="#F53B49"/></g><defs><clipPath id="clip0_1157_41478"><path fill="#fff" transform="translate(0 .699)" d="M0 0h50v50H0z"/></clipPath></defs></svg>