<svg width="22" height="21" fill="none" xmlns="http://www.w3.org/2000/svg"><g clip-path="url(#clip0_785_2149)"><path d="M12.447 18.105A8.502 8.502 0 017.212 16.3l-4.7 4.7L1 19.488l4.7-4.7a8.501 8.501 0 01-1.806-5.236C3.894 4.837 7.731 1 12.447 1 17.163 1 21 4.837 21 9.552c0 4.716-3.837 8.553-8.553 8.553zm0-14.967a6.421 6.421 0 00-6.415 6.414 6.421 6.421 0 006.415 6.415 6.421 6.421 0 006.415-6.415 6.421 6.421 0 00-6.415-6.414z" fill="#858FA4" fill-opacity=".7"/></g><defs><clipPath id="clip0_785_2149"><path fill="#fff" transform="translate(0 .5)" d="M0 0h21.428v20H0z"/></clipPath></defs></svg>