<svg width="36" height="36" fill="none" xmlns="http://www.w3.org/2000/svg"><circle cx="18" cy="18" r="18" fill="#4B7EE8"/><path d="M11.63 15.522c-.898 0-1.63.731-1.63 1.63v5.218c0 .898.732 1.63 1.63 1.63h1.957c.367 0 .705-.124.978-.33v-8.148H11.63zm14.024 2.445c0-.392-.156-.757-.425-1.026.305-.333.46-.78.417-1.245-.076-.83-.823-1.479-1.7-1.479h-4.029c.2-.606.52-1.716.52-2.608C20.436 10.194 19.233 9 18.48 9c-.678 0-1.162.382-1.183.397a.328.328 0 00-.122.255v2.212l-1.878 4.069-.078.04v6.99c.53.25 1.202.385 1.63.385h5.986c.71 0 1.332-.479 1.478-1.14.075-.34.032-.682-.118-.98a1.46 1.46 0 00.653-1.956 1.46 1.46 0 00.806-1.305z" fill="#fff"/></svg>